<svg width="24" height="24" viewBox="0 0 24 24" fill="none" xmlns="http://www.w3.org/2000/svg">
<path d="M20.9917 14.1807C22.6531 14.1807 24 15.5381 24 17.2125V20.9682C24 22.6426 22.6531 24 20.9917 24H16.5465C14.885 24 13.5381 22.6426 13.5381 20.9682V17.2125C13.5381 15.5381 14.885 14.1807 16.5465 14.1807H20.9917Z" fill="black"/>
<path d="M19.4448 0C21.9206 0 23.9275 2.0145 23.9275 4.49952C23.9275 4.49952 23.9275 10.1432 23.9275 11.7868C23.9275 13.4304 21.4913 13.4645 21.4913 11.7868C21.4913 10.1091 21.4913 4.49952 21.4913 4.49952C21.4913 3.36506 20.5751 2.44539 19.4448 2.44539H4.48268C3.35246 2.44539 2.43624 3.36506 2.43624 4.49952V19.4653C2.43624 20.5998 3.35246 21.5194 4.48268 21.5194C4.48268 21.5194 9.40928 21.5194 10.9631 21.5194C12.5169 21.5194 12.6018 23.9648 10.9631 23.9648C9.32436 23.9648 4.48268 23.9648 4.48268 23.9648C2.00696 23.9648 0 21.9503 0 19.4653V4.49952C0 2.0145 2.00696 0 4.48268 0H19.4448Z" fill="black"/>
<path d="M4.63363 4.59056C5.11653 4.10638 5.89951 4.10638 6.38242 4.59056L11.2412 9.46221V7.27069C11.2412 6.58594 11.7948 6.03085 12.4777 6.03085C13.1607 6.03085 13.7143 6.58594 13.7143 7.27069V12.5682C13.7143 13.2529 13.1607 13.808 12.4777 13.808H6.96941C6.28648 13.808 5.73285 13.2529 5.73285 12.5682C5.73285 11.8834 6.28648 11.3284 6.96941 11.3284H9.60479L4.63363 6.344C4.15072 5.85981 4.15072 5.07475 4.63363 4.59056Z" fill="black"/>
</svg>
